<svg xmlns="http://www.w3.org/2000/svg" width="9.63" height="9.12" viewBox="0 0 9.63 9.12">
  <defs>
    <style>
      .cls-1 {
        fill: #fff;
        fill-rule: evenodd;
      }
    </style>
  </defs>
  <path id="Linkedin" class="cls-1" d="M8154.22,3049.28h-1.88v-6.19h1.88v6.19Zm-0.99-6.97h-0.01A1.158,1.158,0,1,1,8153.23,3042.31Zm8.5,6.97h-2.13v-3.2c0-.84-0.33-1.41-1.06-1.41a1.072,1.072,0,0,0-1.02.76,1.308,1.308,0,0,0-.05.5v3.35h-2.11s0.03-5.67,0-6.19h2.11v0.97a1.936,1.936,0,0,1,1.88-1.03c1.33,0,2.38.89,2.38,2.81v3.44Z" transform="translate(-8152.09 -3040.16)"/>
</svg>
