<?xml version="1.0" encoding="utf-8"?>
<!-- Generator: Adobe Illustrator 19.2.0, SVG Export Plug-In . SVG Version: 6.00 Build 0)  -->
<svg version="1.1" id="Layer_1" xmlns="http://www.w3.org/2000/svg" xmlns:xlink="http://www.w3.org/1999/xlink" x="0px" y="0px"
	 viewBox="0 0 538.6 44.6" style="enable-background:new 0 0 538.6 44.6;" xml:space="preserve">
<style type="text/css">
	.st0{fill:#FFFFFF;}
</style>
<g>
	<path class="st0" d="M342,42.1c-1.4-0.8-4.1-2.4-8-5.6c0,0-0.3-0.2-0.3-0.2c0,0-0.7-0.6-0.8-0.6c0.1-0.1,0.5-0.5,0.5-0.5
		c3.3-3.9,5.4-9,5.4-13v0l0,0c0-0.1-0.4-0.3-1.3-0.4c-1.5-0.2-3-0.3-4.7-0.3l0,0.1l0.3,0.1c0.3,0.1,0.5,0.2,0.7,0.4
		c1.1,0.9,1.3,2.2,1.3,3.1c0,3.7-1.7,7.6-2.8,9.1l-0.2,0.3c0,0-0.1,0.2-0.2,0.3c-0.1-0.1,0,0,0,0c-1.9-1.7-8.3-7.5-10.1-9.6
		c0,0-1.7-1.9-1.7-1.9c-4.1-4.4-7.9-8.6-7.9-13.5c0-5.2,4-7.1,6.7-7.1c3.7,0,5.8,1.5,6.8,2.8c0.8,1,1.3,2.1,1.6,3.5l0.1,0
		c0,0,0,0,0,0.1c0,0,0,0,0-0.1l0.1,0c0.2-1.8,0.4-4.2,0.4-5.5c0-0.6,0-0.7-0.5-0.8c-1.4-0.6-3.8-1.2-6.6-1.2c-5.7,0-8.8,2-10.5,3.7
		c-1.7,1.7-2.6,3.9-2.6,6c0.1,2.6,0.5,4.8,2.8,7.7c0,0,0.3,0.5,0.5,0.7c-0.1,0.1-0.7,0.4-0.7,0.4c-3.4,1.7-8.9,6.6-8.9,12.8
		c0,4.1,2.8,11,13,11.8c0.7,0.1,1.4,0.1,2.1,0.1c7.5,0,11.2-3.4,13-5l0.2-0.2c0,0,0.1-0.1,0.2-0.2c0.1,0.1,0.4,0.3,0.4,0.3
		c4.7,3.6,6.6,4.2,13,4.2h2.8l0-0.1C344.5,43.2,343,42.7,342,42.1z M311.4,20.5c0.1,0.1,0.4,0.6,0.4,0.6c0.9,1.3,4.4,5.3,6,7
		c1.5,1.6,6.9,6.9,10.2,9.7c0,0,0,0,0,0c0,0,0.2,0.2,0.6,0.5c-0.1,0.1-0.5,0.5-0.5,0.5c-1.5,1.4-5.4,3.6-9.8,3.6
		c-6.7,0-11.6-5.2-11.6-12.3c0-5.3,2.6-8,4.2-9.2C310.9,20.9,311.3,20.6,311.4,20.5z"/>
	<g>
		<path class="st0" d="M373.5,1l16.1,34.1l16-34.1h10v0.9c-5.7,0.8-6.1,1.4-5.9,8.6l0.6,23.6c0.2,7.3,0.4,7.8,6.2,8.6v0.9h-17.1
			v-0.9c5.5-0.8,5.7-1.3,5.6-8.6L404.9,7h-0.3l-16.5,35.9h-0.7L371.5,8.1h-0.1l-0.6,18.1c-0.3,6.8,0,10.4,0.3,12.5
			c0.4,2.4,2,3.3,6.2,4v0.9h-15.4v-0.9c3.7-0.6,5-1.6,5.6-4c0.5-2,1.1-6,1.4-12.5l0.7-13.8c0.4-8.7,0-9.8-6.2-10.6V1H373.5z"/>
		<path class="st0" d="M440.9,0c11.2,0,20.7,8.8,20.7,21.7c0,13.7-9.5,23-22,23c-12.5,0-21.1-9.5-21.1-21.7
			C418.5,11.8,426,0,440.9,0z M441.1,43.2c7.8,0,14.2-6.8,14.2-19c0-14.3-6.6-22.7-16.2-22.7c-7.7,0-14.3,7-14.3,19.6
			C424.8,33.7,431.2,43.2,441.1,43.2z"/>
		<path class="st0" d="M475,34.1c0,7.1,0.5,7.9,5.9,8.6v0.9h-17.1v-0.9c5.5-0.7,6-1.5,6-8.6V10.5c0-7.1-0.5-7.9-5.8-8.6V1h16.3
			c4.1,0,7.8,0.6,10.3,2.2c2.6,1.6,4.3,4.6,4.3,8.4c0,5.2-3.3,9.3-8.9,11.6c1.1,2,3.8,6.4,5.8,9.3c2.2,3.1,3.9,5.4,5.9,7.7
			c1.8,2.1,2.9,2.8,4.9,3.2l-0.1,0.8c-0.8,0-1.9-0.1-3.9-0.3c-4.2-0.5-6.6-1.8-9.3-5.6c-2.6-3.7-4.9-7.9-6.9-11.2
			c-1.2-2-2.4-2.4-4.7-2.4H475V34.1z M475,23.3h3.1c3.1,0,5.6-0.3,7.5-1.7c2.8-2.2,3.8-5.5,3.8-9.1c0-7.2-4.8-10.2-10.2-10.2
			c-2.1,0-3,0.1-3.5,0.3c-0.4,0.1-0.6,0.5-0.6,1.8V23.3z"/>
		<path class="st0" d="M511.9,10.5c0-7.1-0.5-7.9-5.8-8.6V1h28.5c0.1,1.1,0.4,5.9,0.7,9.6l-1,0.2c-0.9-3.3-2-5-3-6
			c-1-1.1-3-2.3-7.9-2.3h-4.3c-1.8,0-2,0.1-2,2v16h6.6c5.6,0,5.8-0.7,7.2-5.5h1v13h-1c-0.7-2.5-1.1-3.9-2-4.6
			c-0.9-0.8-2.4-0.9-5.2-0.9h-6.6V35c0,3.7,0.4,5.3,1.5,6.2c1.4,1.1,3.7,1.1,6.8,1.1c3.7,0,6.8-1.1,8.3-2.6c1.1-1.2,2.3-3.4,3.8-6.4
			l1,0.2c-0.3,1.8-1.8,8.5-2.3,10.3h-30.8v-0.9c5.9-0.7,6.4-1.5,6.4-8.6V10.5z"/>
	</g>
	<g>
		<path class="st0" d="M18.4,1.3c7.8,0,14,1.6,18.2,5.5c3.3,3.1,5.7,7.8,5.7,13.8c0,16.1-12.3,23.1-27.6,23.1H0v-0.9
			c5.6-0.7,6.1-1.5,6.1-8.5V10.7c0-7-0.5-7.8-5.6-8.5V1.3H18.4z M11.3,35.3c0,5.8,0.8,6.8,5.5,6.8c14,0,19.2-10.1,19.2-19.9
			c0-6.9-1.4-14.1-8-17.6C25.6,3.3,22,2.6,16.7,2.6c-3.3,0-4.2,0.1-4.8,0.3c-0.4,0.2-0.6,0.5-0.6,1.8V35.3z"/>
		<path class="st0" d="M40,43.7v-0.9c4.2-1,5-1.5,7.5-7.8L60.8,0.6l0.8-0.3l4.8,12.5c3.2,8.2,6.1,16.5,8.7,23.1
			c2.1,5.3,2.9,5.9,7,6.8v0.9H66.6v-0.9l2.2-0.6c2.3-0.6,2.5-1.2,2-3.3c-0.5-1.6-2.3-6.6-4.2-11.7h-14c-0.8,2-2.4,7.1-3.1,9.7
			c-1,3.9-0.4,4.7,3.1,5.5l1.4,0.3v0.9H40z M53.1,25.3h12.6L59.5,8.7h-0.1L53.1,25.3z"/>
		<path class="st0" d="M123.5,44.1h-1L93.3,8.7h-0.1v17.7c0,6.8,0.5,10.4,0.8,12.4c0.5,2.3,2.2,3.5,6.5,4v0.9H84.9v-0.9
			c3.6-0.5,5.3-1.7,5.7-4c0.4-2,0.8-5.5,0.8-12.4v-14c0-5.5-0.1-5.9-1.2-7.4c-1.2-1.5-3-2.3-5.8-2.8V1.3h9.5l27.8,33.4h0.1V18.6
			c0-6.8-0.5-10.4-0.8-12.4c-0.5-2.3-2.2-3.5-6.5-4V1.3h15.7v0.9c-3.6,0.5-5.3,1.7-5.7,4c-0.4,2-0.8,5.5-0.8,12.4V44.1z"/>
		<path class="st0" d="M151.6,1.3c7.8,0,14,1.6,18.2,5.5c3.3,3.1,5.7,7.8,5.7,13.8c0,16.1-12.3,23.1-27.6,23.1h-14.7v-0.9
			c5.6-0.7,6.1-1.5,6.1-8.5V10.7c0-7-0.5-7.8-5.6-8.5V1.3H151.6z M144.5,35.3c0,5.8,0.8,6.8,5.5,6.8c14,0,19.2-10.1,19.2-19.9
			c0-6.9-1.4-14.1-8-17.6c-2.5-1.4-6.2-2.1-11.5-2.1c-3.3,0-4.2,0.1-4.8,0.3c-0.4,0.2-0.6,0.5-0.6,1.8V35.3z"/>
		<path class="st0" d="M183.6,10.7c0-7-0.5-7.8-5.7-8.5V1.3h28.3c0.1,1.1,0.4,5.9,0.7,9.5l-1,0.2c-0.9-3.3-2-5-2.9-6
			c-1-1.1-2.9-2.3-7.9-2.3h-4.3c-1.8,0-2,0.1-2,2v15.9h6.6c5.6,0,5.8-0.7,7.1-5.5h1V28h-1c-0.7-2.5-1-3.8-2-4.6
			c-0.9-0.8-2.3-0.9-5.1-0.9h-6.6v12.5c0,3.7,0.4,5.3,1.5,6.1c1.4,1,3.7,1,6.8,1c3.7,0,6.8-1,8.2-2.6c1.1-1.2,2.3-3.4,3.8-6.4l1,0.2
			c-0.3,1.8-1.8,8.5-2.3,10.2h-30.6v-0.9c5.9-0.7,6.4-1.5,6.4-8.5V10.7z"/>
		<path class="st0" d="M223.7,34.2c0,7,0.5,7.8,5.9,8.5v0.9h-16.9v-0.9c5.5-0.7,6-1.5,6-8.5V10.7c0-7-0.5-7.8-5.7-8.5V1.3h16.2
			c4.1,0,7.8,0.6,10.2,2.2c2.6,1.6,4.3,4.6,4.3,8.3c0,5.2-3.3,9.3-8.8,11.5c1.1,2,3.8,6.4,5.7,9.3c2.2,3.1,3.9,5.3,5.9,7.6
			c1.8,2.1,2.9,2.7,4.8,3.1l-0.1,0.8c-0.8,0-1.9-0.1-3.9-0.3c-4.2-0.5-6.5-1.8-9.2-5.5c-2.6-3.7-4.9-7.9-6.8-11.1
			c-1.2-2-2.4-2.4-4.7-2.4h-2.9V34.2z M223.7,23.5h3.1c3.1,0,5.6-0.3,7.4-1.7c2.8-2.2,3.8-5.4,3.8-9c0-7.2-4.8-10.2-10.2-10.2
			c-2.1,0-3,0.1-3.5,0.3c-0.4,0.1-0.6,0.5-0.6,1.8V23.5z"/>
		<path class="st0" d="M254,32.1c1.2,3,4.9,10.8,12.1,10.8c5,0,8.1-2.9,8.1-8.3c0-6.6-5.3-8.7-8.8-10.5c-2.5-1.3-10.8-4.3-10.8-11.8
			c0-6.3,4.8-11.9,13.2-11.9c3.7,0,5.9,1,7.8,1.5c0.3,2.3,0.7,4.9,1.2,8.9l-1,0.2c-1.4-4-3.4-9-9.5-9c-5,0-7.3,3.4-7.3,7.5
			c0,4.8,3.7,7.2,8.7,9.5c4.8,2.2,11.1,5,11.1,12.7c0,7.3-6.1,13-14.3,13.1c-2.3-0.1-4.6-0.6-6.1-1.1c-1.6-0.5-2.7-1-3.5-1.4
			c-0.6-1.7-1.3-6.3-2-9.8L254,32.1z"/>
	</g>
</g>
</svg>
