<svg xmlns="http://www.w3.org/2000/svg" width="150" height="17" viewBox="0 0 150 17">
  <defs>
    <style>
      .cls-1 {
        fill: #fff;
        fill-rule: evenodd;
      }
    </style>
  </defs>
  <path id="Linkedin" class="cls-1" d="M3.188,15.14H0.278v-9.6h2.91v9.6ZM1.659,4.337H1.638A1.637,1.637,0,0,1-.1,2.674,1.654,1.654,0,0,1,1.679,1.007,1.645,1.645,0,0,1,3.434,2.672,1.65,1.65,0,0,1,1.659,4.337Zm13.17,10.8h-3.3V10.172c0-1.3-.515-2.188-1.651-2.188A1.672,1.672,0,0,0,8.3,9.16a2.263,2.263,0,0,0-.072.785v5.2H4.964s0.043-8.8,0-9.6H8.232V7.046a2.971,2.971,0,0,1,2.905-1.6c2.067,0,3.692,1.381,3.692,4.355V15.14Z"/>
  <path id="FB" class="cls-1" d="M50.013,5.96h1.5V4.453a4.146,4.146,0,0,1,.482-2.324A2.629,2.629,0,0,1,54.312,1a9.094,9.094,0,0,1,2.682.279l-0.374,2.3a4.874,4.874,0,0,0-1.2-.188,0.911,0.911,0,0,0-1.1.819V5.96H56.7L56.531,8.2H54.312V16h-2.8V8.2h-1.5V5.96Z"/>
  <path id="Instagram" class="cls-1" d="M113.255,0h-8.511A4.677,4.677,0,0,0,100,4.576v7.848A4.677,4.677,0,0,0,104.744,17h8.511A4.676,4.676,0,0,0,118,12.423V4.576A4.677,4.677,0,0,0,113.255,0Zm3.134,12.31a3.238,3.238,0,0,1-3.285,3.168H104.9a3.237,3.237,0,0,1-3.284-3.168V4.689A3.237,3.237,0,0,1,104.9,1.521H113.1a3.238,3.238,0,0,1,3.285,3.168V12.31ZM109,4.135A4.447,4.447,0,0,0,104.473,8.5a4.528,4.528,0,0,0,9.051,0A4.448,4.448,0,0,0,109,4.135Zm0,7.181A2.869,2.869,0,0,1,106.079,8.5a2.921,2.921,0,0,1,5.839,0A2.869,2.869,0,0,1,109,11.317ZM114.789,3.9a1.022,1.022,0,1,1-1.022-.986A1,1,0,0,1,114.789,3.9Z"/>
</svg>
