<svg xmlns="http://www.w3.org/2000/svg" width="19" height="16" viewBox="0 0 19 16">
  <defs>
    <style>
      .cls-1 {
        fill: #4b4b4b;
        fill-rule: evenodd;
      }
    </style>
  </defs>
  <path id="V-card" class="cls-1" d="M3796.42,3127.6v12.8h-1.22a3.146,3.146,0,0,0-5.48,0h-2.44a3.146,3.146,0,0,0-5.48,0h-1.22v-12.8h15.84Zm1.58-1.6h-19v16h3.96a1.585,1.585,0,1,1,3.17,0h4.74a1.585,1.585,0,1,1,3.17,0H3798v-16Zm-7.92,10.88v0.32h-7.91v-0.33c-0.01-.89.03-1.4,1.04-1.64,1.11-.26,2.21-0.49,1.68-1.47-1.56-2.91-.44-4.56,1.24-4.56,1.64,0,2.78,1.59,1.23,4.56-0.52.97,0.54,1.21,1.68,1.47C3790.05,3135.47,3790.09,3135.98,3790.08,3136.88Zm4.75-7.68h-3.16v1.6h3.16v-1.6Zm0,3.2h-3.16v1.6h3.16v-1.6Zm0,3.2h-3.16v1.6h3.16v-1.6Z" transform="translate(-3779 -3126)"/>
</svg>
